<?xml version="1.0" encoding="UTF-8"?>
<svg data-bbox="1.5 1.52 17.01 16.95" viewBox="0 0 20 20" stroke-linejoin="round" stroke-linecap="round" stroke="#6e6e73" height="20" width="20" xmlns="http://www.w3.org/2000/svg" data-type="ugc">
    <g>
        <path d="M16.02 4.01A8.54 8.54 0 0 0 10 1.52c-4.69 0-8.5 3.81-8.5 8.48 0 1.4.34 2.78 1.01 4.01.08.14.1.31.06.47-.14.51-.47 1.73-.75 2.71a.857.857 0 0 0 1.05 1.05l2.84-.74c.15-.04.31-.02.46.05 1.2.6 2.52.92 3.84.92h0c4.69 0 8.5-3.8 8.5-8.47 0-2.25-.89-4.4-2.49-5.99" stroke-width="1.67" fill="none"/>
        <path d="M7.65 6.48h-.31c-.1 0-.2.03-.29.07-.07.04-.13.08-.22.18-.07.07-.13.14-.18.2 0 0-.02.02-.03.04-.28.36-.44.82-.43 1.28 0 .37.09.74.25 1.08.31.69.83 1.41 1.51 2.09l.07.07a7.1 7.1 0 0 0 3.35 1.96s.43.07.44.07h.42c.22 0 .44-.07.63-.18.1-.06.2-.11.29-.17l.09-.07c.09-.07.18-.14.25-.22.07-.07.12-.15.16-.23.06-.12.12-.36.14-.56.02-.15 0-.23 0-.29 0-.08-.07-.17-.15-.2l-.45-.2-1.07-.47a.3.3 0 0 0-.14-.03c-.1 0-.21.03-.29.09 0 0-.06.05-.6.71-.07.08-.18.13-.28.1-.05-.01-.1-.03-.15-.05-.07-.03-.09-.04-.13-.06-.02 0-.04-.02-.07-.03-.44-.2-.84-.45-1.2-.76-.07-.07-.14-.13-.2-.2l-.07-.07a4.6 4.6 0 0 1-.78-.97l-.05-.07c-.03-.06-.07-.11-.07-.16-.03-.11.05-.2.05-.2s.19-.2.27-.32c.07-.09.14-.19.2-.29.09-.15.12-.3.07-.41-.21-.52-.44-1.04-.66-1.55a.39.39 0 0 0-.3-.19H7.6h.03Z" stroke-width=".5" fill="none"/>
        <path d="M7.71 7.93c0 .398-.13.72-.29.72s-.29-.322-.29-.72.13-.72.29-.72.29.322.29.72" stroke-width="1.67" fill="none"/>
        <path d="M12.74 12.164c.021.137-.147.276-.377.312-.229.036-.432-.046-.453-.182-.021-.137.147-.276.376-.312.23-.036.433.046.454.182" stroke-width="2" fill="none"/>
        <path d="M7.12 9.08c.24.54.8 1.63 2 2.53a6.3 6.3 0 0 0 2.69 1.19" fill="none"/>
    </g>
</svg>
