<?xml version="1.0" encoding="UTF-8"?>
<svg data-bbox="0.999 4 22.001 15.46" class="feather feather-youtube" stroke-linejoin="round" stroke-linecap="round" stroke-width="2" stroke="#6E6E73" viewBox="0 0 24 24" height="20" width="20" xmlns="http://www.w3.org/2000/svg" data-type="ugc">
    <g>
        <path d="M22.54 6.42a2.78 2.78 0 0 0-1.94-2C18.88 4 12 4 12 4s-6.88 0-8.6.46a2.78 2.78 0 0 0-1.94 2A29 29 0 0 0 1 11.75a29 29 0 0 0 .46 5.33A2.78 2.78 0 0 0 3.4 19c1.72.46 8.6.46 8.6.46s6.88 0 8.6-.46a2.78 2.78 0 0 0 1.94-2 29 29 0 0 0 .46-5.25 29 29 0 0 0-.46-5.33" fill="none"/>
        <path d="m9.75 15.02 5.75-3.27-5.75-3.27z" fill="none"/>
    </g>
</svg>
